<svg width="220" height="41" viewBox="0 0 220 41" fill="none" xmlns="http://www.w3.org/2000/svg">
  <path
    d="M14.8515 40.4631H2.59438C1.53443 40.408 0.696338 39.7772 0.283453 38.9382C-0.0924576 38.1727 -0.117107 37.2356 0.363565 36.3966L20.4963 1.3719C21.014 0.465506 21.926 0.00618551 22.8504 6.12391e-05C23.7871 -0.00606303 24.7238 0.447133 25.2538 1.3719L26.0302 2.71924C31.3115 12.0036 24.656 30.5051 14.8577 40.457L14.8515 40.4631Z"
    fill="white" />
  <path
    d="M43.5193 40.463H26.4431C31.9215 32.183 32.9137 22.1025 31.5087 12.2607L45.3804 36.4026C46.3356 38.0623 45.3619 40.4753 43.5193 40.4692V40.463Z"
    fill="white" />
  <path
    d="M216.006 16.1191C215.655 15.917 215.378 15.6414 215.175 15.2923C214.971 14.9433 214.866 14.5636 214.866 14.141C214.866 13.7184 214.971 13.3448 215.175 12.9957C215.378 12.6467 215.655 12.3772 216.006 12.1751C216.358 11.973 216.74 11.875 217.165 11.875C217.59 11.875 217.972 11.973 218.324 12.1751C218.675 12.3772 218.952 12.6528 219.156 12.9957C219.359 13.3387 219.464 13.7245 219.464 14.141C219.464 14.5574 219.359 14.9433 219.156 15.2923C218.952 15.6414 218.675 15.917 218.324 16.1191C217.972 16.3212 217.59 16.4253 217.165 16.4253C216.74 16.4253 216.358 16.3212 216.006 16.1191ZM215.655 15.0474C215.809 15.3168 216.019 15.5373 216.284 15.6965C216.549 15.8558 216.845 15.9354 217.165 15.9354C217.485 15.9354 217.775 15.8558 218.046 15.6965C218.311 15.5373 218.521 15.323 218.675 15.0474C218.829 14.7779 218.909 14.4717 218.909 14.1471C218.909 13.8225 218.829 13.5224 218.675 13.253C218.521 12.9835 218.311 12.7691 218.046 12.6099C217.781 12.4507 217.485 12.3772 217.165 12.3772C216.845 12.3772 216.549 12.4568 216.284 12.6099C216.019 12.7691 215.809 12.9835 215.655 13.253C215.501 13.5224 215.421 13.8225 215.421 14.1471C215.421 14.4717 215.501 14.7779 215.655 15.0474ZM216.271 12.861H217.276C217.424 12.861 217.566 12.8978 217.695 12.9651C217.824 13.0325 217.923 13.1244 217.997 13.2407C218.071 13.3571 218.108 13.4857 218.108 13.6204C218.108 13.7858 218.059 13.9389 217.954 14.0675C217.855 14.1961 217.72 14.288 217.553 14.337L218.293 15.3965H217.695L217.005 14.3798H216.795V15.3965H216.271V12.8671V12.861ZM217.276 13.9144C217.368 13.9144 217.449 13.8838 217.51 13.8286C217.572 13.7735 217.609 13.7 217.609 13.6204C217.609 13.5408 217.578 13.4673 217.51 13.4122C217.449 13.3571 217.368 13.3326 217.276 13.3326H216.795V13.9205H217.276V13.9144Z"
    fill="white" />
  <path
    d="M66.8256 29.9231C66.7332 29.9231 66.5483 29.3474 66.5483 28.6309C65.7164 29.4393 63.4671 30.1313 59.8251 30.1313C55.7209 30.1313 53.3792 29.0473 53.3792 26.2853C53.3792 23.9581 55.0492 21.9554 61.68 21.8881C63.0727 21.8881 65.2974 22.0044 66.5483 22.1391C66.5483 21.9064 66.5237 21.588 66.4313 21.2389C66.1786 20.4795 64.9276 19.9038 62.3763 19.9038C58.531 19.9038 58.1551 20.6632 58.1551 21.5635H54.1433C54.1433 18.9117 56.4604 16.8845 62.1853 16.8845C67.331 16.8845 69.6481 18.1767 70.2027 20.6877C70.3629 21.3307 70.4553 22.8067 70.4369 23.7988C70.4122 24.4419 70.3876 25.9852 70.3876 27.0263C70.3876 28.1777 70.5046 29.5128 70.7142 29.9292H66.8195L66.8256 29.9231ZM62.3517 24.4174C58.6665 24.4174 57.6251 25.0421 57.6251 26.0281C57.6251 26.8365 58.5741 27.3203 61.1007 27.3203C64.8105 27.3203 66.5915 26.3771 66.5915 24.693C65.6425 24.5521 64.1142 24.4174 62.3517 24.4174Z"
    fill="white" />
  <path
    d="M81.6155 30.1743C75.7981 30.1743 73.5735 29.2066 72.9264 26.8549C72.834 26.463 72.7847 26.0955 72.7847 25.7954H76.8642C76.8642 25.9547 76.9135 26.2302 77.0737 26.463C77.4188 26.9713 78.602 27.1795 81.5908 27.1795C85.2082 27.1795 85.7382 26.8121 85.7382 26.12C85.7382 25.428 85.1343 25.2932 82.0037 25.0605C81.332 24.9931 79.7298 24.8278 78.7561 24.7359C74.8614 24.3685 73.0558 23.1926 73.0558 20.7735C73.0558 18.3544 75.6317 16.8601 80.7034 16.8601C85.7751 16.8601 88.0491 17.7604 88.8625 19.9039C89.0043 20.3387 89.0721 20.9634 89.0721 21.1961H85.0603C85.0603 21.0552 84.9925 20.7796 84.8754 20.6204C84.5057 20.1856 83.3903 19.9529 80.913 19.9529C77.5298 19.9529 77.0183 20.253 77.0183 20.8286C77.0183 21.4043 77.3202 21.5635 80.4261 21.8208C81.3505 21.9126 83.1376 22.0719 83.9264 22.1454C88.0491 22.4699 89.676 23.5968 89.676 26.0833C89.676 28.7779 87.402 30.1865 81.6093 30.1865L81.6155 30.1743Z"
    fill="white" />
  <path
    d="M105.951 19.2118V11.7463H108.62V28.5146C108.62 29.0658 108.737 29.9171 108.737 29.9171H106.142L106 27.7736C105.051 29.2924 102.642 30.1682 99.6963 30.1682C96.2206 30.1682 94.0206 29.1515 92.8559 27.6572C92.0425 26.6467 91.5557 25.3545 91.5557 23.6274C91.5557 21.9004 92.0671 20.5408 92.8991 19.5058C94.0576 17.938 96.3316 16.9703 99.4559 16.9703C102.58 16.9703 104.879 17.6134 105.945 19.2057L105.951 19.2118ZM95.173 20.9389C94.5938 21.6064 94.2671 22.5067 94.2671 23.6091C94.2671 24.7114 94.5691 25.6117 95.0991 26.2609C96.0728 27.4122 97.7428 27.9205 100.294 27.9205C102.845 27.9205 104.423 27.3694 105.323 26.1016C105.76 25.5015 106.019 24.6257 106.019 23.6397C106.019 22.6537 105.785 21.637 105.255 21.0124C104.238 19.812 102.543 19.3282 100.158 19.3282C97.7736 19.3282 96.0543 19.9039 95.173 20.9389Z"
    fill="white" />
  <path
    d="M127.625 28.1716C126.417 29.2801 124.217 30.1987 120.599 30.1987C116.982 30.1987 114.246 29.2556 112.859 27.1794C112.12 26.0709 111.818 24.9196 111.818 23.4497C111.818 21.9799 112.212 20.8224 112.909 19.8793C114.277 18.0114 116.964 16.8845 120.532 16.8845C124.66 16.8845 127.415 18.336 128.549 20.7061C128.987 21.5818 129.245 23.2844 129.153 24.4847H114.505C114.572 25.2687 114.924 25.8872 115.454 26.469C116.378 27.4121 118.215 28.0123 120.692 28.0123C122.892 28.0123 124.334 27.5775 125.141 27.1121C125.72 26.7691 126.047 26.2853 126.164 25.9852H129.017C128.925 26.6282 128.438 27.4795 127.625 28.1716ZM125.745 20.7061C124.932 19.8058 123.194 19.1138 120.507 19.1138C118.005 19.1138 116.125 19.7568 115.294 20.6816C114.807 21.2328 114.572 21.8329 114.505 22.5923H126.417C126.417 21.9003 126.183 21.2083 125.745 20.7061Z"
    fill="white" />
  <path
    d="M147.585 27.8041C146.285 29.2066 144.041 30.1068 141.12 30.1068C138.662 30.1068 135.79 29.5066 134.816 28.0123V34.0692H132.105V17.2765H134.773V19.5363C135.494 18.1094 137.996 16.958 141.219 16.958C144.442 16.958 146.457 17.8093 147.683 19.2852C148.657 20.3202 149.144 21.7288 149.144 23.4987C149.144 25.3666 148.565 26.7262 147.591 27.8041H147.585ZM145.243 20.7122C144.294 19.8119 142.624 19.2852 140.424 19.2852C138.224 19.2852 136.69 19.818 135.79 20.7796C135.05 21.4716 134.748 22.4147 134.748 23.658C134.748 24.8093 135.05 25.6606 135.673 26.2853C136.597 27.2774 138.267 27.8286 140.473 27.8286C142.68 27.8286 144.436 27.2774 145.366 26.2853C146.013 25.6177 146.365 24.7175 146.365 23.5416C146.365 22.3657 145.995 21.3736 145.249 20.7061L145.243 20.7122Z"
    fill="white" />
  <path
    d="M160.082 30.1742C154.382 30.1742 151.159 27.7796 151.159 23.5171C151.159 20.1978 153.618 16.8845 160.107 16.8845C166.596 16.8845 169.03 19.9957 169.03 23.5171C169.03 27.5469 165.875 30.1742 160.082 30.1742ZM160.082 19.2546C155.516 19.2546 153.895 21.098 153.895 23.5416C153.895 26.5364 155.959 27.896 160.107 27.896C164.254 27.896 166.319 26.3282 166.319 23.5416C166.319 21.0307 164.513 19.2546 160.082 19.2546Z"
    fill="white" />
  <path
    d="M183.703 19.9713C182.686 19.7386 181.571 19.6039 180.178 19.6039C177.442 19.6039 175.008 21.239 175.008 24.2338V29.9233H172.271V17.2521H174.94V20.0877C175.451 18.4035 177.719 17.1174 180.387 17.0255C181.94 16.9582 182.865 17.0929 183.703 17.2583V19.9774V19.9713Z"
    fill="white" />
  <path
    d="M190.747 19.6283V25.5933C190.747 27.3694 191.536 27.8042 193.298 27.8042C193.97 27.8042 195.387 27.6878 195.874 27.596V29.8068C195.245 29.9906 193.809 30.1314 192.398 30.1314C189.779 30.1314 188.017 29.2556 188.017 26.2854V19.6283H184.936V17.3501H187.992C188.06 16.8417 188.085 14.3124 188.085 14.3124L190.704 14.2634V17.3501H196.034V19.6283H190.747Z"
    fill="white" />
  <path
    d="M213.628 28.1716C212.42 29.2801 210.22 30.1987 206.603 30.1987C202.985 30.1987 200.249 29.2556 198.863 27.1794C198.123 26.0709 197.821 24.9196 197.821 23.4497C197.821 21.9799 198.216 20.8224 198.912 19.8793C200.28 18.0114 202.967 16.8845 206.535 16.8845C210.664 16.8845 213.418 18.336 214.552 20.7061C214.99 21.5818 215.249 23.2844 215.156 24.4847H200.508C200.576 25.2687 200.927 25.8872 201.457 26.469C202.382 27.4121 204.218 28.0123 206.695 28.0123C208.895 28.0123 210.337 27.5775 211.145 27.1121C211.724 26.7691 212.05 26.2853 212.168 25.9852H215.021C214.928 26.6282 214.441 27.4795 213.628 28.1716ZM211.748 20.7061C210.935 19.8058 209.197 19.1138 206.51 19.1138C204.008 19.1138 202.129 19.7568 201.297 20.6816C200.81 21.2328 200.576 21.8329 200.508 22.5923H212.42C212.42 21.9003 212.186 21.2083 211.748 20.7061Z"
    fill="white" />
</svg>